<mxfile host="Electron" modified="2024-06-21T12:46:06.193Z" agent="Mozilla/5.0 (Windows NT 10.0; Win64; x64) AppleWebKit/537.36 (KHTML, like Gecko) draw.io/24.5.3 Chrome/124.0.6367.207 Electron/30.0.6 Safari/537.36" etag="02vyT1kism9_-qQU2RSU" version="24.5.3" type="device">
  <diagram name="Seite-1" id="T95T-MAoptsZgxDkhdr3">
    <mxGraphModel dx="1337" dy="858" grid="1" gridSize="10" guides="1" tooltips="1" connect="1" arrows="1" fold="1" page="1" pageScale="1" pageWidth="827" pageHeight="1169" math="0" shadow="0">
      <root>
        <mxCell id="0" />
        <mxCell id="1" parent="0" />
        <mxCell id="CbMV93YRRMkIrPk-7vgo-9" value="&lt;font style=&quot;font-size: 20px;&quot;&gt;&quot;Waffel angebrannt&quot;&lt;/font&gt;" style="rounded=1;whiteSpace=wrap;html=1;fillColor=#f8cecc;strokeColor=#b85450;glass=0;strokeWidth=1;shadow=0;" parent="1" vertex="1">
          <mxGeometry x="630" y="410" width="200" height="60" as="geometry" />
        </mxCell>
        <mxCell id="CbMV93YRRMkIrPk-7vgo-10" value="" style="endArrow=classic;html=1;rounded=0;entryX=0;entryY=0.5;entryDx=0;entryDy=0;spacing=2;strokeWidth=1;shape=flexArrow;startSize=6;endSize=6;fillColor=#f8cecc;strokeColor=#b85450;" parent="1" target="CbMV93YRRMkIrPk-7vgo-9" edge="1">
          <mxGeometry width="50" height="50" relative="1" as="geometry">
            <mxPoint x="300" y="440" as="sourcePoint" />
            <mxPoint x="340" y="430" as="targetPoint" />
          </mxGeometry>
        </mxCell>
        <mxCell id="CbMV93YRRMkIrPk-7vgo-11" value="" style="endArrow=classic;html=1;rounded=0;spacing=2;strokeWidth=1;shape=flexArrow;startSize=6;endSize=6;fillColor=#ffe6cc;strokeColor=#d79b00;" parent="1" edge="1">
          <mxGeometry width="50" height="50" relative="1" as="geometry">
            <mxPoint x="440" y="220" as="sourcePoint" />
            <mxPoint x="590" y="440" as="targetPoint" />
          </mxGeometry>
        </mxCell>
        <mxCell id="CbMV93YRRMkIrPk-7vgo-12" value="&lt;font style=&quot;font-size: 20px;&quot;&gt;Waffeleisen&lt;/font&gt;" style="rounded=1;whiteSpace=wrap;html=1;fillColor=#ffe6cc;strokeColor=#d79b00;" parent="1" vertex="1">
          <mxGeometry x="330" y="210" width="150" height="30" as="geometry" />
        </mxCell>
        <mxCell id="CbMV93YRRMkIrPk-7vgo-25" value="" style="endArrow=classic;html=1;rounded=0;spacing=2;strokeWidth=1;shape=flexArrow;startSize=6;endSize=6;fillColor=#ffe6cc;strokeColor=#d79b00;" parent="1" edge="1">
          <mxGeometry width="50" height="50" relative="1" as="geometry">
            <mxPoint x="440" y="655" as="sourcePoint" />
            <mxPoint x="590" y="440" as="targetPoint" />
          </mxGeometry>
        </mxCell>
        <mxCell id="CbMV93YRRMkIrPk-7vgo-20" value="&lt;font style=&quot;font-size: 20px;&quot;&gt;Mensch&lt;/font&gt;" style="rounded=1;whiteSpace=wrap;html=1;fillColor=#ffe6cc;strokeColor=#d79b00;" parent="1" vertex="1">
          <mxGeometry x="330" y="640" width="150" height="30" as="geometry" />
        </mxCell>
        <mxCell id="CbMV93YRRMkIrPk-7vgo-29" value="" style="endArrow=classic;html=1;rounded=0;spacing=2;strokeWidth=1;shape=flexArrow;startSize=6;endSize=6;fillColor=#ffe6cc;strokeColor=#d79b00;" parent="1" edge="1">
          <mxGeometry width="50" height="50" relative="1" as="geometry">
            <mxPoint x="160" y="655" as="sourcePoint" />
            <mxPoint x="310" y="440" as="targetPoint" />
          </mxGeometry>
        </mxCell>
        <mxCell id="CbMV93YRRMkIrPk-7vgo-30" value="" style="endArrow=classic;html=1;rounded=0;spacing=2;strokeWidth=1;shape=flexArrow;startSize=6;endSize=6;fillColor=#ffe6cc;strokeColor=#d79b00;" parent="1" edge="1">
          <mxGeometry width="50" height="50" relative="1" as="geometry">
            <mxPoint x="160" y="220" as="sourcePoint" />
            <mxPoint x="310" y="440" as="targetPoint" />
          </mxGeometry>
        </mxCell>
        <mxCell id="CbMV93YRRMkIrPk-7vgo-14" value="&lt;font style=&quot;font-size: 20px;&quot;&gt;Zutaten&lt;/font&gt;" style="rounded=1;whiteSpace=wrap;html=1;fillColor=#ffe6cc;strokeColor=#d79b00;" parent="1" vertex="1">
          <mxGeometry x="50" y="210" width="150" height="30" as="geometry" />
        </mxCell>
        <mxCell id="CbMV93YRRMkIrPk-7vgo-15" value="&lt;font style=&quot;font-size: 20px;&quot;&gt;Rezept&lt;/font&gt;" style="rounded=1;whiteSpace=wrap;html=1;fillColor=#ffe6cc;strokeColor=#d79b00;" parent="1" vertex="1">
          <mxGeometry x="50" y="640" width="150" height="30" as="geometry" />
        </mxCell>
        <mxCell id="CbMV93YRRMkIrPk-7vgo-34" value="" style="endArrow=classic;html=1;rounded=0;fillColor=#fff2cc;strokeColor=#d6b656;shape=flexArrow;width=4.722222222222222;endSize=3.5916666666666663;startSize=3;endWidth=10.07716049382716;" parent="1" edge="1">
          <mxGeometry width="50" height="50" relative="1" as="geometry">
            <mxPoint x="332" y="360" as="sourcePoint" />
            <mxPoint x="532" y="360" as="targetPoint" />
          </mxGeometry>
        </mxCell>
        <mxCell id="CbMV93YRRMkIrPk-7vgo-35" value="" style="endArrow=classic;html=1;rounded=0;fillColor=#fff2cc;strokeColor=#d6b656;shape=flexArrow;width=4.722222222222222;endSize=3.5916666666666663;startSize=3;endWidth=10.07716049382716;" parent="1" edge="1">
          <mxGeometry width="50" height="50" relative="1" as="geometry">
            <mxPoint x="279" y="280" as="sourcePoint" />
            <mxPoint x="479" y="280" as="targetPoint" />
          </mxGeometry>
        </mxCell>
        <mxCell id="CbMV93YRRMkIrPk-7vgo-36" value="" style="endArrow=classic;html=1;rounded=0;fillColor=#fff2cc;strokeColor=#d6b656;shape=flexArrow;width=4.722222222222222;endSize=3.5916666666666663;startSize=3;endWidth=10.07716049382716;" parent="1" edge="1">
          <mxGeometry width="50" height="50" relative="1" as="geometry">
            <mxPoint x="363" y="480" as="sourcePoint" />
            <mxPoint x="563" y="480" as="targetPoint" />
          </mxGeometry>
        </mxCell>
        <mxCell id="CbMV93YRRMkIrPk-7vgo-39" value="" style="endArrow=classic;html=1;rounded=0;fillColor=#fff2cc;strokeColor=#d6b656;shape=flexArrow;width=4.722222222222222;endSize=3.5916666666666663;startSize=3;endWidth=10.07716049382716;" parent="1" edge="1">
          <mxGeometry width="50" height="50" relative="1" as="geometry">
            <mxPoint y="280" as="sourcePoint" />
            <mxPoint x="200" y="280" as="targetPoint" />
          </mxGeometry>
        </mxCell>
        <mxCell id="CbMV93YRRMkIrPk-7vgo-40" value="" style="endArrow=classic;html=1;rounded=0;fillColor=#fff2cc;strokeColor=#d6b656;shape=flexArrow;width=4.722222222222222;endSize=3.5916666666666663;startSize=3;endWidth=10.07716049382716;" parent="1" edge="1">
          <mxGeometry width="50" height="50" relative="1" as="geometry">
            <mxPoint x="278" y="600" as="sourcePoint" />
            <mxPoint x="478" y="600" as="targetPoint" />
          </mxGeometry>
        </mxCell>
        <mxCell id="CbMV93YRRMkIrPk-7vgo-41" value="" style="endArrow=classic;html=1;rounded=0;fillColor=#fff2cc;strokeColor=#d6b656;shape=flexArrow;width=4.722222222222222;endSize=3.5916666666666663;startSize=3;endWidth=10.07716049382716;" parent="1" edge="1">
          <mxGeometry width="50" height="50" relative="1" as="geometry">
            <mxPoint x="305" y="560" as="sourcePoint" />
            <mxPoint x="505" y="560" as="targetPoint" />
          </mxGeometry>
        </mxCell>
        <mxCell id="CbMV93YRRMkIrPk-7vgo-42" value="" style="endArrow=classic;html=1;rounded=0;fillColor=#fff2cc;strokeColor=#d6b656;shape=flexArrow;width=4.722222222222222;endSize=3.5916666666666663;startSize=3;endWidth=10.07716049382716;" parent="1" edge="1">
          <mxGeometry width="50" height="50" relative="1" as="geometry">
            <mxPoint x="333" y="520" as="sourcePoint" />
            <mxPoint x="533" y="520" as="targetPoint" />
          </mxGeometry>
        </mxCell>
        <mxCell id="CbMV93YRRMkIrPk-7vgo-60" value="" style="endArrow=classic;html=1;rounded=0;fillColor=#fff2cc;strokeColor=#d6b656;shape=flexArrow;width=4.722222222222222;endSize=3.5916666666666663;startSize=3;endWidth=10.07716049382716;" parent="1" edge="1">
          <mxGeometry width="50" height="50" relative="1" as="geometry">
            <mxPoint y="600" as="sourcePoint" />
            <mxPoint x="200" y="600" as="targetPoint" />
          </mxGeometry>
        </mxCell>
        <mxCell id="CbMV93YRRMkIrPk-7vgo-61" value="" style="endArrow=classic;html=1;rounded=0;fillColor=#fff2cc;strokeColor=#d6b656;shape=flexArrow;width=4.722222222222222;endSize=3.5916666666666663;startSize=3;endWidth=10.07716049382716;" parent="1" edge="1">
          <mxGeometry width="50" height="50" relative="1" as="geometry">
            <mxPoint x="27" y="560" as="sourcePoint" />
            <mxPoint x="227" y="560" as="targetPoint" />
          </mxGeometry>
        </mxCell>
        <mxCell id="CbMV93YRRMkIrPk-7vgo-64" value="Zutaten zu kalt/warm" style="text;html=1;align=left;verticalAlign=middle;whiteSpace=wrap;rounded=0;fontSize=16;" parent="1" vertex="1">
          <mxGeometry y="250" width="180" height="30" as="geometry" />
        </mxCell>
        <mxCell id="CbMV93YRRMkIrPk-7vgo-66" value="Thermostat defekt" style="text;html=1;align=left;verticalAlign=middle;whiteSpace=wrap;rounded=0;fontSize=16;" parent="1" vertex="1">
          <mxGeometry x="280" y="250" width="150" height="30" as="geometry" />
        </mxCell>
        <mxCell id="CbMV93YRRMkIrPk-7vgo-67" value="Waffeleisen nicht vorgeheizt" style="text;html=1;align=left;verticalAlign=middle;whiteSpace=wrap;rounded=0;fontSize=16;" parent="1" vertex="1">
          <mxGeometry x="363" y="450" width="397" height="30" as="geometry" />
        </mxCell>
        <mxCell id="CbMV93YRRMkIrPk-7vgo-68" value="Antihaftbeschichtung defekt" style="text;html=1;align=left;verticalAlign=middle;whiteSpace=wrap;rounded=0;fontSize=16;" parent="1" vertex="1">
          <mxGeometry x="335" y="330" width="216" height="30" as="geometry" />
        </mxCell>
        <mxCell id="CbMV93YRRMkIrPk-7vgo-69" value="Rezept nicht beachtet" style="text;html=1;align=left;verticalAlign=middle;whiteSpace=wrap;rounded=0;fontSize=16;" parent="1" vertex="1">
          <mxGeometry x="279" y="570" width="181" height="30" as="geometry" />
        </mxCell>
        <mxCell id="CbMV93YRRMkIrPk-7vgo-70" value="Backzeit nicht beachtet" style="text;html=1;align=left;verticalAlign=middle;whiteSpace=wrap;rounded=0;fontSize=16;" parent="1" vertex="1">
          <mxGeometry x="304" y="530" width="181" height="30" as="geometry" />
        </mxCell>
        <mxCell id="CbMV93YRRMkIrPk-7vgo-71" value="Rezept unvollständig" style="text;html=1;align=left;verticalAlign=middle;whiteSpace=wrap;rounded=0;fontSize=16;" parent="1" vertex="1">
          <mxGeometry y="570" width="181" height="30" as="geometry" />
        </mxCell>
        <mxCell id="CbMV93YRRMkIrPk-7vgo-72" value="Rezept fehlerhaft" style="text;html=1;align=left;verticalAlign=middle;whiteSpace=wrap;rounded=0;fontSize=16;" parent="1" vertex="1">
          <mxGeometry x="28" y="530" width="202" height="30" as="geometry" />
        </mxCell>
        <mxCell id="fMPMj7DxE2wM9YxJ1Khv-1" value="" style="endArrow=classic;html=1;rounded=0;fillColor=#fff2cc;strokeColor=#d6b656;shape=flexArrow;width=4.722222222222222;endSize=3.5916666666666663;startSize=3;endWidth=10.07716049382716;" edge="1" parent="1">
          <mxGeometry width="50" height="50" relative="1" as="geometry">
            <mxPoint x="306" y="320" as="sourcePoint" />
            <mxPoint x="506" y="320" as="targetPoint" />
          </mxGeometry>
        </mxCell>
        <mxCell id="fMPMj7DxE2wM9YxJ1Khv-2" value="Timer defekt" style="text;html=1;align=left;verticalAlign=middle;whiteSpace=wrap;rounded=0;fontSize=16;" vertex="1" parent="1">
          <mxGeometry x="307" y="290" width="150" height="30" as="geometry" />
        </mxCell>
        <mxCell id="fMPMj7DxE2wM9YxJ1Khv-3" value="Waffeleisen nicht eingefettet" style="text;html=1;align=left;verticalAlign=middle;whiteSpace=wrap;rounded=0;fontSize=16;" vertex="1" parent="1">
          <mxGeometry x="334" y="490" width="217" height="30" as="geometry" />
        </mxCell>
      </root>
    </mxGraphModel>
  </diagram>
</mxfile>
